PathFileType	4	(X/Y/Z)	C:/Users/beibeiliu/ov580/test_trc/User3\sequence.30_training_dense_left.trc
DataRate	CameraRate	NumFrames	NumMarkers	Units	OrigDataRate	OrigDataStartFrame	OrigNumFrames
120	120	19	19	mm	120	210	239
Frame#	Time	ThumbCMC			ThumbMCP			ThumbIP			ThumbTip			IndexMCP			IndexPIP			IndexTip			MiddleMCP			MiddlePIP			MiddleTip			RingMCP			RingPIP			RingTip			PinkyMCP			PinkyPIP			PinkyTip			BackHand1			BackHand2			BackHand3	
		X0	Y0	Z0	X1	Y1	Z1	X2	Y2	Z2	X3	Y3	Z3	X4	Y4	Z4	X5	Y5	Z5	X6	Y6	Z6	X7	Y7	Z7	X8	Y8	Z8	X9	Y9	Z9	X10	Y10	Z10	X11	Y11	Z11	X12	Y12	Z12	X13	Y13	Z13	X14	Y14	Z14	X15	Y15	Z15	X16	Y16	Z16	X17	Y17	Z17	X18	Y18	Z18	
209	1.74167	-210.333	5.7996	-4.65606	-187.708	17.4151	-25.4816	-167.118	22.9843	-53.5551	-150.674	21.0294	-68.12	-203.705	-10.3069	-76.7443	-177.584	2.86546	-93.3409	-150.019	13.7979	-87.7205	-198.297	-35.5351	-82.2879	-174.16	-24.0499	-105.209	-143.247	-3.84063	-104.074	-191.355	-48.4071	-71.6474	-169.842	-41.591	-94.0525	-140.179	-24.5151	-91.9971	-177.941	-63.5501	-55.9192	-158.54	-59.8803	-74.5767	-137.227	-41.8021	-80.1457	-215.028	-56.0139	-22.4814	-220.724	-55.4223	2.56178	-232.219	-29.1968	-11.4329	
210	1.75	-210.48	4.82781	-8.76987	-184.973	14.8871	-27.3931	-165.641	18.3788	-51.4814	-147.036	17.9348	-69.7992	-204.432	-8.59395	-81.6348	-178.78	4.7104	-97.1369	-153.569	12.4928	-91.1185	-197.496	-33.2743	-84.5592	-176.493	-22.0337	-102.625	-139.351	-3.98155	-95.4839	-188.471	-50.2539	-72.9016	-170.054	-40.4148	-92.4284	-141.999	-23.9549	-90.2155	-179.635	-65.2142	-55.0538	-161.452	-59.6902	-76.453	-142.393	-43.345	-84.8995	-217.395	-55.067	-21.1592	-219.156	-57.1882	8.53386	-231.949	-27.3548	-15.8038	
211	1.75833	-209.25	2.28246	-6.77922	-183.35	10.8402	-30.6593	-162.665	17.5438	-53.1286	-146.643	13.7133	-66.0371	-205.095	-10.1856	-82.6385	-181.248	-0.795467	-97.6102	-151.82	12.1143	-92.4151	-196.071	-34.606	-82.5084	-173.018	-21.0164	-100.053	-138.594	-2.79696	-85.5066	-186.347	-50.2365	-75.527	-163.498	-39.2979	-92.0178	-137.897	-20.4349	-83.689	-180.239	-63.0513	-58.5614	-164.718	-58.2124	-75.3939	-145.343	-43.5736	-85.6922	-214.403	-58.7722	-23.9694	-218.274	-58.9279	4.49324	-234.846	-26.7112	-15.6345	
212	1.76667	-210.589	6.33945	-8.71239	-183.646	16.2448	-28.0719	-162.05	15.1045	-53.1216	-144.855	10.7297	-66.0272	-204.845	-12.8801	-81.5883	-183.121	-1.94131	-99.0441	-155.636	12.2246	-95.5217	-197.842	-31.2274	-80.8204	-168.385	-22.95	-97.5009	-140.793	-0.397464	-82.2724	-187.199	-49.3811	-72.3998	-161.387	-37.364	-89.3995	-139.567	-22.02	-81.6099	-180.866	-61.7622	-52.907	-164.953	-58.4609	-75.7092	-142.871	-46.7703	-83.3576	-213.059	-58.908	-21.3591	-219.537	-59.707	7.88458	-229.802	-30.8713	-15.0797	
213	1.775	-210.396	0.863727	-6.44998	-182.18	15.0106	-29.2878	-162.425	11.9358	-52.7989	-142.395	8.7951	-70.9852	-204.078	-16.6006	-83.3696	-184.222	-3.73592	-100.539	-158.345	5.74615	-98.6473	-193.536	-34.4674	-85.0796	-170.872	-23.2541	-98.8932	-141.076	-5.03702	-83.8391	-185.473	-51.3516	-71.7354	-161.143	-39.1473	-89.0252	-140.007	-20.5654	-81.631	-179.678	-62.201	-55.5339	-164.48	-57.2058	-77.0299	-141.463	-45.3794	-87.0601	-212.246	-60.299	-22.1519	-217.055	-59.5023	7.09211	-232.262	-28.719	-12.9061	
214	1.78333	-210.337	1.36027	-8.28153	-181.237	10.362	-32.5854	-159.8	9.37963	-53.7911	-142.161	4.58907	-65.972	-206.775	-17.2671	-83.8621	-185.319	-7.88845	-101.255	-159.068	8.84898	-101.859	-196.656	-35.9378	-82.3527	-170.048	-19.0516	-100.847	-142.703	0.29296	-85.5356	-183.501	-52.3099	-71.2645	-160.918	-42.0854	-87.96	-137.128	-19.7659	-77.4503	-177.625	-63.6922	-55.4835	-159.564	-57.9063	-77.0469	-137.526	-43.8056	-85.7472	-213.677	-59.8943	-24.7369	-217.35	-58.0488	6.04633	-232.458	-33.3626	-14.6022	
215	1.79167	-207.338	0.161107	-10.4705	-178.971	9.9926	-31.5482	-155.775	7.5936	-52.294	-138.599	1.13113	-63.1461	-208.008	-19.0038	-79.6681	-188.659	-9.49043	-103.178	-163.586	4.97702	-106.276	-193.886	-37.2998	-85.063	-173.247	-23.0217	-101.659	-141.468	-0.191505	-86.6338	-182.741	-50.0345	-75.6218	-158.002	-42.2721	-86.723	-138.864	-18.5602	-77.6537	-173.731	-64.2017	-57.053	-158.29	-57.3451	-74.4432	-135.804	-40.2569	-82.8189	-210.035	-59.4344	-23.3942	-219.417	-56.9205	6.95914	-231.806	-31.966	-17.962	
216	1.8	-207.959	1.17077	-6.48121	-175.827	8.03377	-32.2058	-153.853	7.7838	-50.2239	-135.506	-4.12607	-63.7305	-208.812	-17.9375	-81.5464	-186.795	-7.05169	-105.61	-164.691	7.01044	-109.387	-197.783	-34.9896	-82.953	-170.877	-21.3935	-103.441	-141.964	-3.74739	-85.241	-183.951	-50.4549	-70.2656	-157.111	-40.4536	-85.7648	-139.417	-16.059	-72.2841	-174.518	-61.0817	-56.3507	-156.322	-56.0371	-72.4688	-135.157	-36.8946	-79.0588	-212.868	-56.6581	-24.2422	-215.253	-58.4961	5.43614	-230.006	-31.3915	-16.1999	
217	1.80833	-207.089	3.66942	-12.091	-175.4	8.57653	-32.7629	-153.458	6.79132	-48.4054	-135.439	-6.15046	-61.1548	-207.711	-18.0052	-83.3704	-189.941	-10.2521	-104.27	-165.01	8.00043	-109.445	-194.148	-37.961	-86.7692	-171.03	-24.4321	-102.973	-142.695	-3.91615	-86.6703	-180.883	-51.0946	-72.9148	-155.99	-42.6407	-84.5754	-139.865	-14.5412	-69.2289	-171.887	-61.2482	-52.2863	-150.966	-57.6326	-69.72	-131.849	-34.4602	-73.2303	-212.024	-57.4203	-23.9791	-215.018	-56.8407	7.34991	-229.453	-32.1295	-16.3852	
218	1.81667	-206.888	1.8747	-12.6191	-176.662	9.0738	-31.0813	-153.277	5.20362	-51.4284	-133.08	-5.73269	-62.6694	-206.52	-21.427	-82.0513	-188.362	-13.1989	-104.557	-163.555	5.58485	-110.458	-193.612	-43.2995	-85.4835	-171.104	-31.7497	-102.957	-142.311	-6.73096	-89.1681	-180.324	-54.1758	-69.3995	-155.036	-40.999	-86.4702	-138.314	-20.4122	-71.8028	-169.214	-63.6261	-50.2094	-150.956	-52.7421	-70.7447	-130.39	-32.9162	-72.6309	-210.162	-58.3399	-22.7968	-214.785	-59.6832	6.16345	-230.576	-34.0683	-14.6909	
219	1.825	-207.062	0.418582	-12.2076	-176.297	9.56375	-32.2262	-151.29	3.40698	-54.7386	-133.452	-6.1569	-60.7998	-206.333	-23.8819	-82.2952	-186.366	-17.1022	-105.756	-159.922	4.0071	-110.718	-194.941	-45.7104	-82.7755	-172.291	-39.1858	-105.346	-142.951	-14.4975	-98.7485	-177.59	-55.1564	-73.0915	-157.408	-44.0225	-87.3887	-135.034	-20.0026	-75.4854	-168.848	-59.6732	-52.2377	-147.278	-54.2879	-67.2443	-131.825	-31.8875	-68.3625	-206.783	-58.951	-23.1107	-216.172	-58.5796	5.2307	-228.01	-35.083	-18.1198	
220	1.83333	-207.926	1.16484	-12.3932	-176.208	7.00795	-32.8318	-151.537	5.44101	-52.4838	-133.094	-9.81572	-63.0873	-204.347	-26.3931	-82.4345	-184.548	-16.4283	-107.121	-163.477	0.17513	-113.138	-198.308	-46.6629	-82.0865	-177.487	-41.2724	-109.661	-145.384	-17.4159	-109.736	-177.558	-57.0634	-73.0082	-154.778	-48.1498	-86.604	-135.113	-24.3145	-80.5862	-163.374	-61.4757	-54.9469	-145.68	-50.4294	-66.1401	-130.83	-24.4342	-62.4015	-204.11	-61.9227	-23.5174	-214.258	-56.5058	3.39586	-229.321	-34.1105	-19.7147	
221	1.84167	-209.238	1.34756	-12.6288	-175.45	5.61995	-34.6065	-150.818	1.08549	-54.7245	-131.979	-10.6625	-64.5548	-204.418	-28.62	-81.363	-186.756	-20.1594	-105.809	-162.753	-1.62078	-112.792	-200.127	-49.7341	-83.2539	-177.84	-47.4827	-109.548	-146.828	-24.8498	-116.465	-180.742	-55.5275	-71.8039	-156.107	-47.562	-88.2672	-133.048	-24.1144	-82.3538	-164.76	-57.1502	-54.3574	-143.336	-45.7392	-63.0353	-128.122	-21.7887	-54.3959	-205.676	-60.2656	-24.6252	-215.024	-60.8602	9.50839	-230.936	-34.4493	-20.7353	
222	1.85	-210.11	-1.60349	-13.0457	-176.659	4.13532	-35.3713	-152.511	0.268473	-55.7338	-132.072	-13.8227	-65.1221	-207.115	-29.3967	-81.2079	-189.597	-20.9909	-106.139	-166.931	-3.65612	-114.579	-199.736	-51.7486	-79.994	-179.497	-48.6098	-110.752	-148.744	-29.3869	-120.492	-180.284	-56.8155	-72.4618	-156.751	-49.8069	-88.6651	-133.795	-27.3388	-84.3132	-163.974	-57.7779	-48.4938	-139.972	-40.6308	-59.6438	-128.743	-16.6377	-48.8725	-203.988	-63.3875	-23.1468	-214.048	-58.9977	7.21971	-228.789	-38.3697	-15.7977	
223	1.85833	-212.365	-1.13688	-14.2826	-179.991	6.01483	-30.595	-156.097	-0.372114	-50.0513	-133.373	-9.00729	-62.2205	-206.056	-31.8991	-82.3903	-187.534	-25.9347	-106.031	-164.383	-7.86002	-115.56	-195.489	-56.0664	-80.3568	-181.544	-52.0779	-109.467	-151.338	-31.0879	-124.396	-180.043	-57.6557	-69.959	-154.57	-48.4251	-88.3541	-136.452	-26.8435	-85.6565	-161.234	-55.4505	-52.4022	-142.689	-38.0403	-59.2909	-130.903	-14.1315	-46.9662	-206.872	-62.8003	-23.4208	-212.024	-64.4142	6.34962	-227.682	-39.6827	-16.9766	
224	1.86667	-212.267	-3.4134	-14.884	-179.928	1.85549	-33.9817	-154.185	5.63618	-50.8173	-132.918	-6.34669	-60.3607	-205.952	-33.95	-83.8652	-186.837	-27.4946	-108.729	-166.392	-8.69898	-118.756	-194.329	-57.8058	-82.1738	-175.918	-54.9717	-109.853	-151.262	-31.7512	-124.238	-177.259	-58.7426	-65.8479	-150.983	-49.8898	-86.6934	-135.052	-24.8452	-84.0497	-158.232	-58.5603	-50.1458	-138.817	-40.8694	-57.2415	-131.711	-12.5907	-47.079	-203.852	-65.1746	-20.2145	-214.301	-63.4745	8.35028	-230.559	-39.8652	-20.3758	
225	1.875	-214.109	-1.89021	-15.6819	-182.027	8.10571	-34.3399	-158.264	3.39824	-47.6068	-132.713	-7.79198	-61.4355	-203.631	-36.1604	-85.7681	-188.817	-26.3679	-110.599	-167.22	-16.3391	-119.575	-196.345	-55.5486	-79.3386	-175.236	-55.3937	-107.387	-150.517	-32.0027	-120.258	-172.697	-60.2255	-69.429	-152.516	-45.976	-87.1091	-133.901	-23.4054	-79.7189	-159.95	-56.5708	-50.385	-140	-40.8054	-57.5924	-130.059	-13.9976	-47.9133	-204.725	-65.5561	-20.3252	-213.199	-60.7771	10.0738	-229.623	-40.1215	-19.2674	
226	1.88333	-214	-2.32138	-16.5296	-181.587	3.38722	-33.0813	-154.577	4.9297	-52.9327	-133.33	-8.43965	-61.3567	-205.007	-34.9694	-83.139	-189.284	-28.5027	-110.069	-170.108	-15.8419	-122.657	-193.632	-55.9313	-81.3297	-172.059	-51.3317	-108.942	-146.675	-27.0237	-117.044	-173.67	-57.6755	-69.4846	-148.603	-46.9904	-82.2231	-134.222	-17.7297	-74.6717	-157.227	-60.845	-49.2688	-137.275	-44.4063	-57.0996	-131.715	-19.2356	-52.9051	-200.914	-67.3067	-21.5853	-214.268	-61.1787	6.79022	-228.975	-42.2442	-16.7733	
227	1.89167	-213.041	-4.53936	-12.6534	-182.208	2.97947	-31.9156	-156.003	1.61328	-48.6	-134.301	-9.14523	-58.502	-205.832	-34.0613	-81.7599	-193.483	-27.4655	-108.723	-170.01	-12.9941	-123.588	-193.374	-53.7928	-81.9088	-171.542	-47.9998	-109.167	-144.222	-24.9652	-115.256	-170.391	-60.8959	-68.3589	-147.742	-45.4689	-82.6604	-132.466	-18.1876	-70.5066	-161.265	-61.941	-45.5107	-139.268	-52.3617	-56.9538	-123.861	-27.7744	-55.679	-206.101	-65.7552	-23.8976	-212.93	-61.9895	8.0824	-232.085	-40.7842	-20.8471	
